<?xml version="1.0" encoding="UTF-8"?>
<svg xmlns="http://www.w3.org/2000/svg" width="249.74" height="249.74" viewBox="0 0 249.74 249.74">
  <defs>
    <style>
      .cls-1 {
        fill: #ffd280;
      }

      .cls-2 {
        fill: #eb4343;
      }

      .cls-3 {
        stroke-width: 14px;
      }

      .cls-3, .cls-4, .cls-5, .cls-6 {
        stroke-miterlimit: 10;
      }

      .cls-3, .cls-5 {
        stroke: #eb4343;
      }

      .cls-3, .cls-6 {
        fill: none;
      }

      .cls-4 {
        fill: #3d50ff;
        stroke: #3d50ff;
      }

      .cls-4, .cls-5, .cls-6 {
        stroke-width: 5px;
      }

      .cls-5 {
        fill: #fff8ec;
      }

      .cls-6 {
        stroke: #fff8ec;
      }
    </style>
  </defs>
  <g id="Layer_4" data-name="Layer 4">
    <circle class="cls-1" cx="124.87" cy="124.87" r="112.01"/>
    <path class="cls-5" d="M17.75,92.02h87.91c5.56-.04,10.01,4.61,9.8,9.91-.2,5.03-4.53,9.2-9.8,9.15H31.55c-2.25-.06-4.14,1.77-4.16,4-.02,2.25,1.88,4.12,4.16,4.06,7.39,0,16.24-.31,28.99,0,6.29.15,10.76,5.67,10.03,10.9-.62,4.4-4.84,8.1-10.03,8.11H13.49c-1.14-7.4-1.83-17.52,0-29.25,1.01-6.49,2.59-12.16,4.26-16.89Z"/>
    <circle class="cls-2" cx="124.87" cy="56.06" r="23.07"/>
    <path class="cls-5" d="M86.48,53.55h124.77c3.91,5.74,7.82,11.48,11.72,17.22h-35.14c-2.52.24-4.47,2.3-4.58,4.73-.11,2.59,1.89,4.91,4.58,5.17h39.99c1.89,5.59,3.78,11.19,5.68,16.78h-98.85c-4.3-.26-7.7-3.76-7.85-7.93-.15-4.38,3.32-8.23,7.85-8.51h23.3c2.85,0,5.4-2.08,5.66-4.91.02-.2.03-.39.02-.59,0-.2-.01-.39-.04-.58-.31-2.78-2.83-4.8-5.63-4.8h-71.49c-3.94-.65-6.9-3.86-7.19-7.63-.32-4.2,2.76-8.18,7.19-8.94Z"/>
  </g>
  <g id="Layer_8" data-name="Layer 8">
    <circle class="cls-4" cx="123.96" cy="195.62" r="32.44"/>
    <circle class="cls-6" cx="123.96" cy="195.62" r="29.07"/>
    <circle class="cls-6" cx="123.96" cy="195.62" r="19.98"/>
    <path class="cls-4" d="M60.89,163.18c-14.56,0-26.89,9.6-30.99,22.81.62,1.05,1.27,2.09,1.94,3.1,10.15,14.1,26.88,21.95,40.03,32.78-13.15-10.83-29.89-18.67-40.03-32.78,10.3,15.72,25.78,27.32,42.63,35.99,11.13-5.14,18.87-16.4,18.87-29.46,0-17.92-14.52-32.44-32.44-32.44Z"/>
    <path class="cls-6" d="M60.89,166.55c-14.08,0-25.82,10.01-28.49,23.3,10.2,13.63,26.56,21.38,39.47,32.02-12.91-10.63-29.28-18.39-39.47-32.02,0,.02-.01.05-.02.07,9.49,14.1,23.17,24.84,38.21,33.1,11.28-4,19.37-14.75,19.37-27.4,0-16.05-13.01-29.07-29.07-29.07Z"/>
    <path class="cls-6" d="M41.81,201.55c4.94,5.15,10.48,9.74,16.41,13.85.88.12,1.76.2,2.67.2.82,0,1.63-.06,2.42-.16-7.43-5.23-15.26-10.16-22.05-16.12.14.76.31,1.51.54,2.24Z"/>
    <path class="cls-6" d="M80.87,195.62c0-11.03-8.94-19.98-19.98-19.98s-19.98,8.94-19.98,19.98c0,1.26.13,2.49.35,3.69,6.78,5.96,14.61,10.9,22.05,16.12,9.89-1.2,17.55-9.6,17.55-19.82Z"/>
    <path class="cls-4" d="M190.46,161.38c-17.92,0-32.44,14.52-32.44,32.44,0,13.41,8.14,24.93,19.76,29.87,15.48-7.35,28.68-18.11,38.24-32.26.32-.83.61-1.68.86-2.56-.25.88-.54,1.73-.86,2.56,1.81-2.68,3.51-5.46,5.04-8.39-4.44-12.62-16.46-21.66-30.6-21.66Z"/>
    <path class="cls-6" d="M190.46,164.75c-16.05,0-29.07,13.01-29.07,29.07,0,13.08,8.64,24.14,20.53,27.79,13.68-7.24,25.38-17.29,34.07-30.13.33-.84.62-1.71.88-2.61-.26.9-.55,1.77-.88,2.61.95-1.41,1.88-2.84,2.76-4.32-3.01-12.84-14.53-22.41-28.29-22.41Z"/>
    <path class="cls-6" d="M195.21,213.21c5.19-3.89,9.96-8.29,14.23-13.2.63-1.95.99-4.02.99-6.18,0-11.03-8.94-19.98-19.98-19.98s-19.98,8.94-19.98,19.98,8.94,19.98,19.98,19.98c1.64,0,3.23-.22,4.76-.59Z"/>
  </g>
  <g id="Layer_6" data-name="Layer 6">
    <path class="cls-4" d="M159.73,184.56c-17.92,0-32.44,14.52-32.44,32.44,0,7.47,2.53,14.34,6.77,19.82,20.39-1.61,41.38-9.57,58.08-21.23-.74-17.26-14.96-31.03-32.41-31.03Z"/>
    <path class="cls-6" d="M188.8,217c0-16.05-13.01-29.07-29.07-29.07s-29.07,13.01-29.07,29.07c0,7.47,2.82,14.27,7.44,19.42,17.75-2.11,35.7-8.88,50.67-18.57,0-.28.02-.56.02-.84Z"/>
    <path class="cls-6" d="M179.71,217c0-11.03-8.94-19.98-19.98-19.98s-19.98,8.94-19.98,19.98c0,7.44,4.08,13.92,10.12,17.36,9.88-2.28,19.61-5.91,28.62-10.56.77-2.13,1.21-4.41,1.21-6.8Z"/>
    <path class="cls-4" d="M86.86,186.04c-15.53,0-28.51,10.92-31.69,25.5,11.31,8.24,24.62,14.44,38.38,19.17,9.17-3.56,17.91-8.19,25.71-13.63-.74-17.26-14.96-31.03-32.41-31.03Z"/>
    <path class="cls-6" d="M115.91,219.33c0-.28.02-.56.02-.84,0-16.05-13.01-29.07-29.07-29.07-14.42,0-26.37,10.5-28.67,24.26,10.63,7.19,22.81,12.72,35.36,17.03,7.88-3.06,15.43-6.9,22.35-11.38Z"/>
    <path class="cls-6" d="M105.62,225.29c.77-2.13,1.21-4.41,1.21-6.8,0-11.03-8.94-19.98-19.98-19.98s-19.98,8.94-19.98,19.98c0,.18.01.36.02.54,8.37,4.67,17.42,8.51,26.66,11.69,4.12-1.6,8.16-3.41,12.06-5.42Z"/>
  </g>
  <g id="Layer_3" data-name="Layer 3">
    <path class="cls-4" d="M96.87,232.87c-.68-.04-1.37-.11-2.05-.17.64.18,1.28.36,1.93.52.02-.11.06-.23.12-.35Z"/>
    <path class="cls-4" d="M124.87,207.45c-15.3,0-28.12,10.6-31.54,24.85.49.14.99.27,1.49.4.68.06,1.37.13,2.05.17-.06.13-.1.24-.12.35,19.42,4.95,40.4,4.03,59.63-1.08-3.47-14.18-16.26-24.7-31.51-24.7Z"/>
    <path class="cls-6" d="M153.1,232.96c-3.11-12.71-14.57-22.14-28.23-22.14s-25.04,9.38-28.19,22.04c.06,0,.13.01.19.02-.06.12-.1.24-.12.34,18.32,4.67,38.03,4.12,56.35-.25Z"/>
    <path class="cls-6" d="M96.68,232.86c-.03.11-.06.21-.09.32.05.01.11.03.16.04.02-.11.06-.22.12-.34-.06,0-.13-.01-.19-.02Z"/>
    <path class="cls-6" d="M144.16,234.77c-2.26-8.55-10.03-14.86-19.29-14.86s-17.19,6.44-19.36,15.13c12.74,2.08,25.91,1.85,38.65-.27Z"/>
    <path class="cls-4" d="M191.27,201.65c-15.3,0-28.12,10.6-31.54,24.85,2.02.59,4.07,1.1,6.13,1.57,13.54-7.45,28.16-12.8,39.1-23.39-4.16-1.94-8.79-3.03-13.68-3.03Z"/>
    <path class="cls-6" d="M191.27,205.02c-13.74,0-25.25,9.54-28.28,22.36.95.24,1.92.47,2.88.68,12.43-6.84,25.77-11.91,36.33-20.89-3.38-1.37-7.06-2.15-10.93-2.15Z"/>
    <path class="cls-6" d="M191.27,214.11c-7.22,0-13.52,3.84-17.02,9.59,6.16-3.08,12.34-6.05,18.11-9.54-.36-.02-.72-.05-1.09-.05Z"/>
    <path class="cls-4" d="M59.98,202.48c15.3,0,28.12,10.6,31.54,24.85-2.02.59-4.07,1.1-6.13,1.57-13.54-7.45-28.16-12.8-39.1-23.39,4.16-1.94,8.79-3.03,13.68-3.03Z"/>
    <path class="cls-6" d="M59.98,205.85c13.74,0,25.25,9.54,28.28,22.36-.95.24-1.92.47-2.88.68-12.43-6.84-25.77-11.91-36.33-20.89,3.38-1.37,7.06-2.15,10.93-2.15Z"/>
    <path class="cls-6" d="M59.98,214.95c7.22,0,13.52,3.84,17.02,9.59-6.16-3.08-12.34-6.05-18.11-9.54.36-.02.72-.05,1.09-.05Z"/>
  </g>
  <g id="Layer_5" data-name="Layer 5">
    <circle class="cls-3" cx="124.87" cy="124.87" r="113.26"/>
  </g>
</svg>